<svg width="564" height="38" viewBox="0 0 564 38" fill="none" xmlns="http://www.w3.org/2000/svg">
<mask id="mask0_331_1730" style="mask-type:alpha" maskUnits="userSpaceOnUse" x="0" y="0" width="564" height="38">
<rect x="0.5" y="16.5" width="563" height="8" rx="4" fill="#FCFAF2" stroke="#B3935E"/>
<rect x="103.5" y="1.5" width="35" height="35" rx="17.5" fill="#FCFAF2"/>
<rect x="103.5" y="1.5" width="35" height="35" rx="17.5" stroke="#B3935E" stroke-width="3"/>
<path d="M117.524 16.836V14.196L123.364 13.076V24.5H120.388V16.164L117.524 16.836Z" fill="#B3935E"/>
<rect x="264.5" y="1.5" width="35" height="35" rx="17.5" fill="#FCFAF2"/>
<rect x="264.5" y="1.5" width="35" height="35" rx="17.5" stroke="#B3935E" stroke-width="3"/>
<path d="M276.82 24.5L281.732 19.476C282.041 19.124 282.308 18.8147 282.532 18.548C282.767 18.2813 282.943 18.02 283.06 17.764C283.188 17.4973 283.252 17.22 283.252 16.932C283.252 16.772 283.225 16.6173 283.172 16.468C283.119 16.3187 283.033 16.1907 282.916 16.084C282.799 15.9667 282.655 15.876 282.484 15.812C282.324 15.7373 282.127 15.7 281.892 15.7C281.593 15.7 281.327 15.78 281.092 15.94C280.857 16.0893 280.676 16.3027 280.548 16.58C280.431 16.8573 280.372 17.172 280.372 17.524H277.332C277.332 16.724 277.503 15.988 277.844 15.316C278.196 14.6333 278.719 14.0893 279.412 13.684C280.116 13.268 280.98 13.06 282.004 13.06C282.719 13.06 283.353 13.1667 283.908 13.38C284.463 13.5827 284.927 13.86 285.3 14.212C285.684 14.564 285.972 14.9587 286.164 15.396C286.356 15.8227 286.452 16.2653 286.452 16.724C286.452 17.332 286.303 17.8813 286.004 18.372C285.705 18.8627 285.305 19.3107 284.804 19.716L282.484 21.668H286.788V24.5H276.82Z" fill="#B3935E"/>
<rect x="425.5" y="1.5" width="35" height="35" rx="17.5" fill="#FCFAF2"/>
<rect x="425.5" y="1.5" width="35" height="35" rx="17.5" stroke="#B3935E" stroke-width="3"/>
<path d="M441.996 19.108V17.796C442.295 17.796 442.567 17.7587 442.812 17.684C443.057 17.6093 443.271 17.508 443.452 17.38C443.633 17.252 443.772 17.108 443.868 16.948C443.964 16.7773 444.012 16.6013 444.012 16.42C444.012 16.2387 443.969 16.0787 443.884 15.94C443.799 15.8013 443.671 15.6947 443.5 15.62C443.34 15.5453 443.132 15.508 442.876 15.508C442.481 15.508 442.156 15.62 441.9 15.844C441.655 16.068 441.532 16.3613 441.532 16.724H438.684C438.684 16.0413 438.855 15.428 439.196 14.884C439.548 14.3293 440.039 13.892 440.668 13.572C441.297 13.2413 442.033 13.076 442.876 13.076C443.772 13.076 444.529 13.2147 445.148 13.492C445.777 13.7693 446.252 14.148 446.572 14.628C446.903 15.0973 447.068 15.6253 447.068 16.212C447.068 16.8947 446.839 17.4493 446.38 17.876C445.932 18.3027 445.324 18.6173 444.556 18.82C443.788 19.012 442.935 19.108 441.996 19.108ZM442.732 24.788C442.017 24.788 441.377 24.6813 440.812 24.468C440.257 24.244 439.783 23.94 439.388 23.556C439.004 23.172 438.711 22.74 438.508 22.26C438.305 21.78 438.204 21.284 438.204 20.772H441.26C441.26 21.1347 441.335 21.4333 441.484 21.668C441.633 21.9027 441.831 22.0733 442.076 22.18C442.332 22.2867 442.593 22.34 442.86 22.34C443.148 22.34 443.399 22.3027 443.612 22.228C443.836 22.1533 444.012 22.0253 444.14 21.844C444.268 21.652 444.332 21.412 444.332 21.124C444.332 20.932 444.289 20.7507 444.204 20.58C444.119 20.3987 443.98 20.244 443.788 20.116C443.607 19.9773 443.367 19.8707 443.068 19.796C442.78 19.7213 442.423 19.684 441.996 19.684V18.18C442.796 18.18 443.521 18.2387 444.172 18.356C444.833 18.4733 445.404 18.6653 445.884 18.932C446.364 19.1987 446.732 19.5347 446.988 19.94C447.255 20.3453 447.388 20.836 447.388 21.412C447.388 22.0627 447.207 22.644 446.844 23.156C446.481 23.668 445.953 24.068 445.26 24.356C444.567 24.644 443.724 24.788 442.732 24.788Z" fill="#B3935E"/>
</mask>
<g mask="url(#mask0_331_1730)">
<rect y="14" width="140" height="14" rx="7" fill="#B3935E"/>
<rect x="0.5" y="16.5" width="563" height="8" rx="4" stroke="#B3935E"/>
<rect x="103.5" y="1.5" width="35" height="35" rx="17.5" fill="#FCFAF2"/>
<rect x="103.5" y="1.5" width="35" height="35" rx="17.5" stroke="#B3935E" stroke-width="3"/>
<path d="M117.524 16.836V14.196L123.364 13.076V24.5H120.388V16.164L117.524 16.836Z" fill="#B3935E"/>
<rect x="264.5" y="1.5" width="35" height="35" rx="17.5" fill="#FCFAF2"/>
<rect x="264.5" y="1.5" width="35" height="35" rx="17.5" stroke="#B3935E" stroke-width="3"/>
<path d="M276.82 24.5L281.732 19.476C282.041 19.124 282.308 18.8147 282.532 18.548C282.767 18.2813 282.943 18.02 283.06 17.764C283.188 17.4973 283.252 17.22 283.252 16.932C283.252 16.772 283.225 16.6173 283.172 16.468C283.119 16.3187 283.033 16.1907 282.916 16.084C282.799 15.9667 282.655 15.876 282.484 15.812C282.324 15.7373 282.127 15.7 281.892 15.7C281.593 15.7 281.327 15.78 281.092 15.94C280.857 16.0893 280.676 16.3027 280.548 16.58C280.431 16.8573 280.372 17.172 280.372 17.524H277.332C277.332 16.724 277.503 15.988 277.844 15.316C278.196 14.6333 278.719 14.0893 279.412 13.684C280.116 13.268 280.98 13.06 282.004 13.06C282.719 13.06 283.353 13.1667 283.908 13.38C284.463 13.5827 284.927 13.86 285.3 14.212C285.684 14.564 285.972 14.9587 286.164 15.396C286.356 15.8227 286.452 16.2653 286.452 16.724C286.452 17.332 286.303 17.8813 286.004 18.372C285.705 18.8627 285.305 19.3107 284.804 19.716L282.484 21.668H286.788V24.5H276.82Z" fill="#B3935E"/>
<rect x="425.5" y="1.5" width="35" height="35" rx="17.5" fill="#FCFAF2"/>
<rect x="425.5" y="1.5" width="35" height="35" rx="17.5" stroke="#B3935E" stroke-width="3"/>
<path d="M441.996 19.108V17.796C442.295 17.796 442.567 17.7587 442.812 17.684C443.057 17.6093 443.271 17.508 443.452 17.38C443.633 17.252 443.772 17.108 443.868 16.948C443.964 16.7773 444.012 16.6013 444.012 16.42C444.012 16.2387 443.969 16.0787 443.884 15.94C443.799 15.8013 443.671 15.6947 443.5 15.62C443.34 15.5453 443.132 15.508 442.876 15.508C442.481 15.508 442.156 15.62 441.9 15.844C441.655 16.068 441.532 16.3613 441.532 16.724H438.684C438.684 16.0413 438.855 15.428 439.196 14.884C439.548 14.3293 440.039 13.892 440.668 13.572C441.297 13.2413 442.033 13.076 442.876 13.076C443.772 13.076 444.529 13.2147 445.148 13.492C445.777 13.7693 446.252 14.148 446.572 14.628C446.903 15.0973 447.068 15.6253 447.068 16.212C447.068 16.8947 446.839 17.4493 446.38 17.876C445.932 18.3027 445.324 18.6173 444.556 18.82C443.788 19.012 442.935 19.108 441.996 19.108ZM442.732 24.788C442.017 24.788 441.377 24.6813 440.812 24.468C440.257 24.244 439.783 23.94 439.388 23.556C439.004 23.172 438.711 22.74 438.508 22.26C438.305 21.78 438.204 21.284 438.204 20.772H441.26C441.26 21.1347 441.335 21.4333 441.484 21.668C441.633 21.9027 441.831 22.0733 442.076 22.18C442.332 22.2867 442.593 22.34 442.86 22.34C443.148 22.34 443.399 22.3027 443.612 22.228C443.836 22.1533 444.012 22.0253 444.14 21.844C444.268 21.652 444.332 21.412 444.332 21.124C444.332 20.932 444.289 20.7507 444.204 20.58C444.119 20.3987 443.98 20.244 443.788 20.116C443.607 19.9773 443.367 19.8707 443.068 19.796C442.78 19.7213 442.423 19.684 441.996 19.684V18.18C442.796 18.18 443.521 18.2387 444.172 18.356C444.833 18.4733 445.404 18.6653 445.884 18.932C446.364 19.1987 446.732 19.5347 446.988 19.94C447.255 20.3453 447.388 20.836 447.388 21.412C447.388 22.0627 447.207 22.644 446.844 23.156C446.481 23.668 445.953 24.068 445.26 24.356C444.567 24.644 443.724 24.788 442.732 24.788Z" fill="#B3935E"/>
</g>
</svg>
